<?xml version="1.0" encoding="UTF-8"?>
<svg xmlns="http://www.w3.org/2000/svg" version="1.1" viewBox="0 0 595.28 841.89">
  <defs>
    <style>
      .cls-1 {
        fill: #070707;
      }

      .cls-2 {
        letter-spacing: .02em;
      }

      .cls-2, .cls-3, .cls-4, .cls-5, .cls-6 {
        font-family: Montserrat-Regular, Montserrat;
      }

      .cls-7, .cls-8, .cls-9, .cls-10 {
        fill: #1272d1;
      }

      .cls-3 {
        letter-spacing: .02em;
      }

      .cls-3, .cls-4, .cls-11, .cls-12, .cls-13 {
        fill: #fff;
      }

      .cls-14, .cls-15, .cls-16 {
        fill: #f19d0a;
      }

      .cls-11 {
        font-family: Montserrat-ExtraBold, Montserrat;
        font-weight: 700;
      }

      .cls-11, .cls-17 {
        font-size: 16.12px;
        letter-spacing: .02em;
      }

      .cls-8 {
        font-size: 49.72px;
        letter-spacing: .02em;
      }

      .cls-8, .cls-9, .cls-10, .cls-16 {
        font-weight: 800;
      }

      .cls-8, .cls-10, .cls-16 {
        font-family: Montserrat-Black, Montserrat;
      }

      .cls-18 {
        fill: #e20707;
      }

      .cls-19 {
        fill: #1663a3;
      }

      .cls-19, .cls-10, .cls-20 {
        display: none;
      }

      .cls-15 {
        letter-spacing: .02em;
      }

      .cls-15, .cls-21, .cls-22, .cls-13 {
        font-family: Montserrat-SemiBold, Montserrat;
        font-weight: 600;
      }

      .cls-23 {
        font-size: 12.67px;
      }

      .cls-21, .cls-6 {
        fill: #33302a;
      }

      .cls-9 {
        font-family: Swiss721BT-Black, 'Swis721 Blk BT';
        font-size: 40.33px;
        letter-spacing: .02em;
      }

      .cls-10 {
        font-size: 46.53px;
        letter-spacing: .02em;
      }

      .cls-16 {
        font-size: 17.98px;
        letter-spacing: .02em;
      }

      .cls-24 {
        fill: #f0f4f7;
      }
    </style>
  </defs>
  <!-- Generator: Adobe Illustrator 28.6.0, SVG Export Plug-In . SVG Version: 1.2.0 Build 709)  -->
  <g>
    <g id="Layer_1">
      <g class="cls-20">
        <text class="cls-8" transform="translate(170.13 286.27)"><tspan x="0" y="0">ENGKUYUNG</tspan></text>
        <rect class="cls-14" x="206.91" y="296.45" width="131.58" height="17.65"/>
        <text class="cls-23" transform="translate(210.5 309.35)"><tspan class="cls-3" x="0" y="0">Tuntaskan Piutang </tspan><tspan class="cls-2" x="129.01" y="0"> </tspan><tspan class="cls-15" x="132.59" y="0">jaga Kepatuhan</tspan></text>
        <g>
          <path class="cls-14" d="M144.44,242.18c4.87,0,10.06,1.36,15.58,4.15l5.67-13.66c-5.83-3.28-13.58-4.87-21.09-4.87-17.33,0-26.04,8.47-26.04,18.85,0,4.42,1.4,7.64,3.6,10.05.25-.12.51-.23.77-.34.04-.03.08-.06.13-.09.82-.53,1.88-.96,2.88-.87.77.07,1.36.47,1.71,1.07.16-.08.33-.16.52-.21,1.58-.47,3.91.18,4.41,1.77.14.02.27.06.41.1.41.14.78.36,1.08.66.43.29.8.67,1,1.16.25.6.13,1.21-.15,1.75.39.61.61,1.32.55,2.05-.07.88-.48,1.66-1.13,2.21l1.81,1.3c.83.22,1.69.14,2.3.02-.04-.05-.08-.1-.12-.16-.35-.52-.62-1.09-.97-1.61-.15-.23-.04-.53.17-.66.23-.15.52-.04.66.17.33.49.58,1.02.91,1.52.04.06.08.13.13.19.02.03.04.06.07.09,0,.01,0,0,0,.01,0,0,0,0,0,0,.09.11.18.22.29.32,0,0,0,0,0,0,.93.16,1.8-.19,2.34-.49-.23-.2-.44-.41-.64-.65-.37-.45-.67-.95-.94-1.46-.13-.24-.05-.52.17-.66.21-.14.54-.05.66.17.13.24.26.48.41.72.07.11.14.21.21.32.04.05.07.11.12.16,0,0,0,0,0,0,.02.02.04.04.05.07.16.19.33.38.52.55.1.09.2.17.3.26,0,0,0,0,0,0,0,0,0,0,0,0,.03.02.06.05.09.07.05.04.1.07.15.11.73-.05,1.19-.26,1.46-.45-.24-.32-.46-.67-.65-1.02-.4-.71-.73-1.46-1-2.22-.09-.25.1-.53.34-.6.27-.07.51.09.6.34.25.7.53,1.33.9,1.99.25.45.52.88.86,1.25,1.43-.1,2.19-1.04,2.19-1.04l-3.51-9.77c-1.21-.47-2.39-1.01-3.56-1.58-.11.13-.22.26-.34.39-.69.69-1.58,1.22-2.55,1.4-.75.14-1.55.12-2.26-.17-.45-.05-.89-.17-1.3-.42-.62-.37-1.02-1.02-1.03-1.75,0-.73.36-1.41.77-1.98.88-1.22,2.02-2.33,3.29-3.15.19-.12.38-.22.58-.3-.18-.27-.34-.55-.44-.86-.03,0-.06,0-.08,0-.08-.22-.13-.45-.13-.69,0-1.92,1.76-3.51,7.27-3.51Z"/>
          <g>
            <path class="cls-7" d="M149.88,250.69l-5.99-3.13c-.64-.34-1.39-.41-2.09-.21l-3.43.98c-.46.13-.87.4-1.18.76l-2.8,3.29c-.29.34-.18.86.23,1.04,1.26.57,3.85,1.2,6.11-1.73l.99-1.53s.17,1.03-.34,1.78c0,0,.6.53,1.52-.41,0,0-.02.5-.39.98l2.09.97h0c.47,1.16.97,2.31,1.52,3.43l2.86,7.21c-.04.26-.11.5-.22.73-.12.64-.35,1.26-.68,1.86.88.57,1.4,1.25,1.4,2.15,0,1.92-1.92,3.04-7.27,3.04-6.15,0-13.18-2-18.45-5.11l-6.07,13.74c5.59,3.43,15.02,5.75,24.36,5.75,17.33,0,26.04-8.63,26.04-18.85,0-11.53-9.68-14.86-18.21-16.73Z"/>
            <path class="cls-7" d="M124.36,260.02s.02,0,.04,0c.28.98,1.04,1.8,2.02,2.11.06.25.17.48.3.7,0,.02,0,.05.02.07.4.78,1.17,1.29,2.01,1.46.22.37.53.68.96.87.31.13.64.18.97.12.54.13,1.12.14,1.67,0,.8-.2,1.76-.76,1.98-1.61.15-.58-.1-1.18-.56-1.54-.07-.06-.15-.09-.23-.13.24-.21.44-.46.54-.78.21-.71-.1-1.44-.72-1.82-.58-.35-1.29-.32-1.91-.08-.08.03-.15.06-.23.1.23-.33.36-.71.3-1.13-.09-.65-.58-1.16-1.21-1.31-.59-.14-1.13.06-1.67.28-.43.18-.85.36-1.28.54,0-.2-.02-.39-.1-.58-.36-.85-1.36-1.15-2.19-.83-.2.08-.39.17-.59.27-.69.19-1.31.55-1.83,1.03-.32.29-.38.85-.16,1.21.42.66,1.1,1,1.87,1.07Z"/>
          </g>
        </g>
      </g>
      <g class="cls-20">
        <g>
          <path class="cls-14" d="M314.4,328.88c.53-2.78,2.31-4.69,4.38-6.46,8.67-4.98,17.33-9.96,26-14.94l13.9-7.87c-3.26-4.35-8.43-7.19-14.25-7.19h-61.98c-9.8,0-17.81,8.01-17.81,17.81v51.34l3.82-2.41c4.35-2.06,7.2-5.37,8.44-10.04,1.96-7.41,3.86-14.85,5.95-22.23.51-1.8,1.53-3.51,2.58-5.08.8-1.19,2.04-2.1,3.08-3.13,5.94-5.9,11.88-11.8,17.82-17.69,1.3-1.29,2.41-1.21,3.18.44.62,1.34.9,2.83,1.37,4.39.19-.1.55-.27.9-.46,2.48-1.42,4.95-2.86,7.44-4.26,1.47-.82,2.63-.18,2.69,1.48.03.98.01,1.96-.01,2.94-.08,3.35-1.64,5.81-4.53,7.47-3.01,1.73-5.98,3.51-9,5.22-5.48,3.1-8.15,7.78-8.1,14.07.04,6.33.01,12.66,0,18.99,0,.87-.1,1.92.88,2.2.66.19,1.6-.04,2.23-.4,3.61-2.02,7.19-4.1,10.78-6.16v-9.6c-.04-2.77-.27-5.75.24-8.42Z"/>
          <path class="cls-7" d="M358.86,325.55c-.38.26-.76.49-1.12.75-2.96,2.24-4.67,5.25-5.59,8.81-1.83,7.11-3.76,14.2-5.62,21.3-.89,3.37-2.67,6.16-5.53,8.13-2.14,1.48-4.44,2.75-6.7,4.05-8.02,4.63-16.06,9.24-24.09,13.86-.09.05-.18.08-.27.13,0-.05,0-.09-.02-.14-1.04-4.93.39-9.48,3.62-12.74,2.65-1.52,5.31-3.05,7.93-4.63,1.04-.62,1.96-1.31,2.78-2.06,2.77-1.8,5.26-4.05,6.62-7.14,1.67-3.78,1.1-8.32,1.02-12.33-.05-2.35-.11-4.7-.2-7.05-.06-1.5.2-3.98-.71-5.34-1.57-2.33-4.17-1.59-5.96-.11-3.62,2.09-7.24,4.19-10.87,6.28v9.6c.59-.34,1.17-.68,1.76-1.01,1.65-.94,2.79-.28,2.83,1.64.03,1.39.06,2.78,0,4.16-.11,3.12-1.43,5.58-4.18,7.17-10.63,6.15-21.27,12.3-31.9,18.45l-13.99,6.17c3.27,3.99,8.24,6.55,13.77,6.55h61.98c9.8,0,17.81-8.01,17.81-17.81v-48.56l-3.39,1.9Z"/>
        </g>
        <text class="cls-9" transform="translate(146.47 437.62)"><tspan x="0" y="0">SENGKUYUNG</tspan></text>
        <rect class="cls-14" x="149.18" y="448.6" width="167.37" height="22.45"/>
        <rect class="cls-7" x="316.55" y="448.6" width="149.67" height="22.45"/>
        <text class="cls-17" transform="translate(153.75 465.01)"><tspan class="cls-4" x="0" y="0">Tuntaskan Piutang </tspan><tspan class="cls-5" x="164.11" y="0"> </tspan><tspan class="cls-13" x="168.66" y="0">jaga Kepatuhan</tspan></text>
      </g>
      <g class="cls-20">
        <g>
          <path class="cls-14" d="M128.92,231.07c.36-1.89,1.57-3.19,2.98-4.39,5.89-3.39,11.79-6.77,17.68-10.16l9.45-5.35c-2.21-2.96-5.73-4.89-9.69-4.89h-42.15c-6.66,0-12.11,5.45-12.11,12.11v34.91l2.6-1.64c2.96-1.4,4.9-3.65,5.74-6.83,1.34-5.04,2.63-10.1,4.05-15.11.35-1.22,1.04-2.39,1.76-3.45.55-.81,1.39-1.43,2.09-2.13,4.04-4.01,8.08-8.02,12.12-12.03.88-.88,1.64-.82,2.16.3.42.91.61,1.93.93,2.98.13-.07.38-.18.61-.32,1.69-.96,3.36-1.95,5.06-2.9,1-.56,1.79-.12,1.83,1.01.02.67,0,1.33,0,2-.06,2.28-1.11,3.95-3.08,5.08-2.05,1.17-4.07,2.39-6.12,3.55-3.73,2.11-5.54,5.29-5.51,9.57.03,4.3,0,8.61,0,12.91,0,.59-.07,1.31.6,1.49.45.13,1.09-.03,1.52-.27,2.46-1.37,4.89-2.79,7.33-4.19v-6.53c-.02-1.89-.18-3.91.16-5.72Z"/>
          <path class="cls-7" d="M159.15,228.81c-.26.18-.52.33-.76.51-2.02,1.52-3.18,3.57-3.8,5.99-1.25,4.84-2.55,9.66-3.82,14.49-.6,2.29-1.82,4.19-3.76,5.53-1.46,1.01-3.02,1.87-4.55,2.76-5.46,3.15-10.92,6.28-16.38,9.42-.06.04-.12.06-.18.09,0-.03,0-.06-.01-.1-.71-3.35.27-6.45,2.46-8.66,1.81-1.04,3.61-2.07,5.39-3.15.7-.42,1.33-.89,1.89-1.4,1.89-1.23,3.58-2.76,4.5-4.86,1.13-2.57.75-5.66.69-8.39-.03-1.6-.08-3.2-.14-4.8-.04-1.02.14-2.71-.48-3.63-1.06-1.58-2.84-1.08-4.05-.08-2.46,1.42-4.93,2.85-7.39,4.27v6.53c.4-.23.8-.46,1.2-.69,1.12-.64,1.9-.19,1.92,1.11.02.94.04,1.89,0,2.83-.08,2.12-.97,3.79-2.84,4.87-7.23,4.19-14.46,8.36-21.69,12.54l-9.51,4.19c2.23,2.71,5.6,4.45,9.36,4.45h42.15c6.66,0,12.11-5.45,12.11-12.11v-33.02l-2.31,1.3Z"/>
        </g>
        <g>
          <path class="cls-7" d="M171.6,229.62h9.06c.25,1.05.7,1.81,1.36,2.26.66.46,1.63.69,2.93.69,1.09,0,1.95-.19,2.57-.56s.94-.89.94-1.55c0-1.05-1.31-1.9-3.92-2.56-.53-.13-.93-.23-1.2-.29-2.14-.55-3.84-1.05-5.11-1.51-1.27-.45-2.19-.88-2.77-1.27-1.12-.8-1.95-1.76-2.51-2.88-.56-1.12-.84-2.39-.84-3.82,0-2.88,1.08-5.13,3.25-6.77,2.17-1.64,5.15-2.46,8.94-2.46s6.66.79,8.8,2.35c2.14,1.57,3.35,3.82,3.62,6.75h-8.84c-.15-.85-.52-1.49-1.13-1.91-.61-.42-1.48-.63-2.61-.63-1,0-1.74.16-2.23.49s-.73.83-.73,1.5c0,.96,1.27,1.76,3.82,2.4.22.07.39.11.51.14.37.09.93.23,1.67.41,3.37.85,5.58,1.63,6.62,2.32,1.29.85,2.23,1.83,2.82,2.91.59,1.09.89,2.38.89,3.86,0,3.2-1.12,5.67-3.36,7.38s-5.44,2.58-9.62,2.58c-3.85,0-6.9-.86-9.15-2.58-2.25-1.72-3.52-4.14-3.79-7.27Z"/>
          <path class="cls-7" d="M202.51,238.66v-29.01h23.18v6.95h-13.86v3.86h11.72v6.66h-11.72v4.49h14.44v7.05h-23.75Z"/>
          <path class="cls-7" d="M231.42,238.66v-29.01h8.84l8.13,13.49c.25.38.52.92.8,1.62.28.7.58,1.54.9,2.52-.08-.51-.14-1.08-.18-1.69-.04-.62-.06-1.37-.06-2.25v-13.69h8.88v29.01h-8.88l-8.13-13.39c-.25-.39-.52-.95-.82-1.67-.3-.72-.59-1.55-.9-2.48.09.51.16,1.05.2,1.61.04.56.06,1.34.06,2.35v13.59h-8.84Z"/>
          <path class="cls-7" d="M286.64,238.66l-.45-2.5c-1.05,1.12-2.32,1.95-3.8,2.49-1.48.54-3.21.82-5.18.82-4.15,0-7.42-1.36-9.81-4.09-2.39-2.72-3.58-6.46-3.58-11.2s1.33-8.6,4-11.27c2.67-2.67,6.4-4.01,11.21-4.01,3.78,0,6.83.94,9.15,2.82,2.32,1.88,3.69,4.52,4.12,7.94h-8.84c-.36-1.16-.93-2.04-1.72-2.64-.79-.6-1.78-.91-2.94-.91-1.86,0-3.26.72-4.18,2.15-.93,1.43-1.39,3.56-1.39,6.4,0,2.63.47,4.59,1.4,5.89s2.35,1.95,4.25,1.95c1.37,0,2.53-.32,3.48-.96s1.54-1.49,1.76-2.57h-4.19v-6.2h12.74v15.89h-6.01Z"/>
          <path class="cls-7" d="M298.73,238.66v-29.01h9.24v9.61l8.35-9.61h10.81l-10.36,10.69,11.7,18.31h-11.11l-7.09-11.62-2.3,2.38v9.24h-9.24Z"/>
          <path class="cls-7" d="M329.47,209.65h9.32v17.88c0,1.65.34,2.83,1.03,3.54.69.7,1.84,1.05,3.46,1.05s2.7-.34,3.38-1.03,1.01-1.87,1.01-3.55v-17.88h9.31v18.61c0,3.64-1.17,6.41-3.51,8.33-2.34,1.92-5.74,2.88-10.19,2.88s-7.9-.96-10.26-2.89c-2.36-1.92-3.54-4.7-3.54-8.32v-18.61Z"/>
          <path class="cls-7" d="M370.81,238.66v-10.73l-10.67-18.28h10.32l5,9.89,5.04-9.89h10.04l-10.42,18.28v10.73h-9.31Z"/>
          <path class="cls-7" d="M393.63,209.65h9.32v17.88c0,1.65.34,2.83,1.03,3.54.69.7,1.84,1.05,3.46,1.05s2.7-.34,3.38-1.03,1.01-1.87,1.01-3.55v-17.88h9.31v18.61c0,3.64-1.17,6.41-3.51,8.33-2.34,1.92-5.74,2.88-10.19,2.88s-7.9-.96-10.26-2.89c-2.36-1.92-3.54-4.7-3.54-8.32v-18.61Z"/>
          <path class="cls-7" d="M427.39,238.66v-29.01h8.84l8.13,13.49c.25.38.52.92.8,1.62s.58,1.54.9,2.52c-.08-.51-.14-1.08-.18-1.69-.04-.62-.06-1.37-.06-2.25v-13.69h8.88v29.01h-8.88l-8.13-13.39c-.25-.39-.52-.95-.82-1.67-.3-.72-.59-1.55-.9-2.48.09.51.16,1.05.2,1.61.04.56.06,1.34.06,2.35v13.59h-8.84Z"/>
          <path class="cls-7" d="M487.68,222.77h-11.81v6.2h4.19c-.22,1.08-.81,1.93-1.76,2.57-.95.64-2.11.96-3.48.96-1.9,0-3.32-.65-4.25-1.95-.93-1.3-1.4-3.26-1.4-5.89,0-2.84.46-4.97,1.39-6.4.93-1.43,2.32-2.15,4.19-2.15,1.17,0,2.15.3,2.94.91.79.6,1.37,1.48,1.72,2.64h8.84c-.43-3.41-1.81-6.06-4.12-7.94-2.32-1.88-5.37-2.82-9.15-2.82-4.81,0-8.54,1.34-11.21,4.01s-4,6.43-4,11.27,1.19,8.47,3.58,11.2c2.39,2.72,5.66,4.09,9.81,4.09,1.97,0,3.7-.27,5.18-.82s2.75-1.38,3.8-2.49l.45,2.5h6.01v-15.89h-.93Z"/>
        </g>
        <rect class="cls-14" x="172.94" y="249.64" width="167.37" height="22.45"/>
        <rect class="cls-7" x="340.3" y="249.64" width="149.67" height="22.45"/>
        <text class="cls-17" transform="translate(177.5 266.05)"><tspan class="cls-4" x="0" y="0">Tuntaskan Piutang </tspan><tspan class="cls-5" x="164.11" y="0"> </tspan><tspan class="cls-13" x="168.66" y="0">Jaga Kepatuhan</tspan></text>
        <g>
          <circle class="cls-14" cx="505.33" cy="217.26" r="12.53"/>
          <text class="cls-11" transform="translate(494.55 223.01)"><tspan x="0" y="0">+3</tspan></text>
        </g>
      </g>
      <text class="cls-10" transform="translate(49.48 203.17)"><tspan x="0" y="0">1.</tspan></text>
      <text class="cls-10" transform="translate(49.71 488.04)"><tspan x="0" y="0">2.</tspan></text>
      <g class="cls-20">
        <text class="cls-16" transform="translate(515.4 531.4)"><tspan x="0" y="0">3</tspan></text>
      </g>
      <text/>
      <g class="cls-20">
        <g>
          <g>
            <path class="cls-18" d="M94.7,339.29c0-7.23,5.88-13.11,13.11-13.11h42.15c4.09,0,8.01,1.98,10.49,5.29l.68.91-10.44,5.91-17.59,10.11c-1.34,1.15-2.29,2.23-2.58,3.76-.25,1.33-.21,2.85-.17,4.31.01.41.02.81.03,1.21v7.12l-2.27,1.31c-1.85,1.07-3.71,2.14-5.57,3.18-.5.28-1.11.44-1.65.44h0c-.22,0-.43-.03-.63-.08-1.35-.38-1.34-1.74-1.33-2.32v-3.55c.01-3.16.02-6.33,0-9.49-.03-4.65,1.99-8.17,6.02-10.44,1.18-.67,2.34-1.35,3.51-2.03.87-.51,1.73-1.02,2.6-1.52,1.69-.97,2.53-2.36,2.58-4.24.02-.65.03-1.29,0-1.94,0-.2-.05-.29-.06-.31,0,.03-.1.04-.28.14-1.09.61-2.17,1.24-3.25,1.86l-1.8,1.03c-.19.11-.38.2-.53.28l-1.19.61-.35-1.15c-.1-.34-.19-.68-.28-1.01-.18-.67-.35-1.29-.6-1.84-.08-.16-.14-.25-.18-.3-.07.03-.19.11-.37.29-3.2,3.17-12.12,12.03-12.12,12.03-.23.23-.47.45-.72.67-.48.44-.94.85-1.25,1.31-.58.87-1.3,2.01-1.62,3.17-1.05,3.7-2.04,7.48-3,11.15-.35,1.32-.69,2.64-1.04,3.95-.9,3.4-2.99,5.9-6.22,7.45l-4.08,2.58v-36.73Z"/>
            <path d="M149.96,327.18c3.96,0,7.48,1.93,9.69,4.89l-9.45,5.35c-5.89,3.39-11.79,6.77-17.68,10.16-1.41,1.2-2.62,2.5-2.98,4.39-.34,1.81-.19,3.84-.16,5.72v6.53c-2.44,1.4-4.87,2.82-7.33,4.19-.33.18-.77.32-1.16.32-.13,0-.25-.01-.36-.05-.66-.19-.6-.9-.6-1.49,0-4.3.02-8.61,0-12.91-.03-4.28,1.78-7.46,5.51-9.57,2.05-1.16,4.08-2.38,6.12-3.55,1.97-1.13,3.02-2.8,3.08-5.08.02-.67.03-1.33,0-2-.03-.8-.43-1.25-1.01-1.25-.24,0-.52.08-.81.24-1.69.95-3.37,1.93-5.06,2.9-.23.13-.48.25-.61.32-.32-1.06-.51-2.07-.93-2.98-.28-.61-.64-.9-1.04-.9-.34,0-.72.21-1.12.6-4.04,4.01-8.08,8.02-12.12,12.03-.71.7-1.55,1.32-2.09,2.13-.72,1.07-1.41,2.23-1.76,3.45-1.42,5.02-2.71,10.07-4.05,15.11-.84,3.18-2.78,5.42-5.74,6.83l-2.6,1.64v-34.91c0-6.66,5.45-12.11,12.11-12.11h42.15M149.96,325.18h-42.15c-7.78,0-14.11,6.33-14.11,14.11v38.54l3.07-1.94,2.5-1.58c3.47-1.68,5.73-4.39,6.7-8.07.35-1.31.69-2.62,1.04-3.93.96-3.66,1.96-7.45,3-11.15.29-1.02.95-2.08,1.49-2.88.24-.36.65-.73,1.09-1.13.25-.23.51-.46.75-.7l3.39-3.36c2.67-2.65,5.35-5.31,8.02-7.96.06.22.12.45.19.69.09.34.18.69.29,1.04l.69,2.3,2.13-1.1.1-.05c.16-.08.38-.19.59-.31.59-.33,1.17-.67,1.75-1.01.71-.41,1.43-.82,2.14-1.23,0,.18,0,.37-.01.56-.04,1.55-.68,2.59-2.08,3.4-.88.5-1.75,1.02-2.63,1.53-1.16.68-2.31,1.35-3.48,2.01-4.36,2.47-6.56,6.28-6.53,11.32.02,3.16.02,6.38.01,9.49v3.41s0,.13,0,.13c-.02,1.8.68,2.9,2.06,3.29.28.08.58.12.9.12.71,0,1.49-.21,2.13-.57,1.87-1.04,3.74-2.12,5.56-3.17l1.79-1.03,1-.58v-7.69c0-.43-.02-.84-.03-1.25-.04-1.42-.08-2.88.15-4.1.23-1.21,1.03-2.13,2.18-3.12,4.11-2.36,8.22-4.73,12.34-7.09l5.18-2.98,9.44-5.34,1.98-1.12-1.36-1.82c-2.67-3.56-6.89-5.69-11.29-5.69h0Z"/>
          </g>
          <g>
            <path class="cls-12" d="M107.81,394.55c-3.93,0-7.62-1.76-10.14-4.82l-.83-1.02,10.67-4.7s17.39-10.05,21.65-12.52c1.51-.87,2.28-2.2,2.34-4.04.03-.89.02-1.78,0-2.77,0-.25-.05-.4-.08-.45,0,.03-.13.06-.35.18l-2.69,1.55v-8.83l7.82-4.52c.89-.72,1.89-1.11,2.83-1.11,1.06,0,1.99.52,2.63,1.46.66.99.66,2.37.65,3.48,0,.24,0,.47,0,.67.06,1.6.1,3.21.14,4.81,0,.47.03.96.05,1.45.09,2.36.2,5.03-.83,7.36-.88,1.98-2.45,3.7-4.81,5.25-.6.54-1.27,1.03-1.99,1.46-1.7,1.03-3.41,2.01-5.29,3.09-1.67,1.74-2.46,3.97-2.29,6.38l1.95-1.12c4.45-2.55,8.89-5.11,13.33-7.67l.72-.42c1.26-.72,2.57-1.47,3.76-2.3,1.67-1.15,2.8-2.82,3.36-4.96.49-1.87.99-3.73,1.48-5.59.79-2.96,1.58-5.92,2.34-8.89.73-2.84,2.09-4.98,4.17-6.54.18-.14.37-.26.56-.39l.24-.16,3.86-2.17v34.73c0,7.23-5.88,13.11-13.11,13.11h-42.15Z"/>
            <path d="M162.07,348.42v33.02c0,6.66-5.45,12.11-12.11,12.11h-42.15c-3.76,0-7.14-1.74-9.36-4.45l9.51-4.19c7.23-4.18,14.47-8.36,21.69-12.54,1.87-1.08,2.76-2.75,2.84-4.87.03-.94.02-1.89,0-2.83-.02-.91-.4-1.4-1.01-1.4-.27,0-.57.09-.91.29-.4.23-.8.46-1.2.69v-6.53c2.46-1.42,4.93-2.85,7.39-4.27.65-.54,1.47-.94,2.26-.94.67,0,1.31.29,1.8,1.02.62.93.45,2.62.48,3.63.06,1.6.1,3.2.14,4.8.05,2.73.44,5.82-.69,8.39-.93,2.1-2.62,3.63-4.5,4.86-.56.51-1.19.98-1.89,1.4-1.78,1.07-3.59,2.11-5.39,3.15-2.2,2.22-3.17,5.31-2.46,8.66,0,.03,0,.07.01.1.06-.03.12-.05.18-.09,5.46-3.14,10.93-6.27,16.38-9.42,1.54-.89,3.1-1.75,4.55-2.76,1.94-1.34,3.16-3.23,3.76-5.53,1.27-4.83,2.58-9.65,3.82-14.49.62-2.42,1.79-4.47,3.8-5.99.24-.18.5-.34.76-.51l2.31-1.3M164.07,345l-2.98,1.67-2.31,1.3-.07.04-.07.04-.22.15c-.21.14-.42.28-.62.43-2.26,1.71-3.74,4.02-4.53,7.09-.76,2.95-1.56,5.96-2.33,8.86-.5,1.87-1,3.74-1.49,5.62-.51,1.93-1.48,3.36-2.96,4.39-1.17.81-2.4,1.51-3.71,2.26l-.71.41c-4.57,2.64-9.15,5.27-13.72,7.9.21-1.42.84-2.73,1.85-3.83,1.54-.88,3.4-1.96,5.18-3.03.75-.45,1.45-.97,2.08-1.53,2.49-1.65,4.16-3.49,5.11-5.64,1.12-2.54,1.01-5.34.91-7.8-.02-.48-.04-.96-.05-1.43-.03-1.62-.08-3.25-.14-4.83,0-.19,0-.4,0-.63,0-1.18.02-2.8-.82-4.05-.82-1.23-2.05-1.9-3.46-1.9-1.14,0-2.34.46-3.39,1.28l-2.19,1.26-5.07,2.93-1,.58v11.14l3-1.72.14-.08c0,.53,0,1.03-.02,1.53-.05,1.5-.64,2.52-1.84,3.21-4.15,2.4-8.3,4.8-12.45,7.2l-9.15,5.29-9.41,4.15-2.41,1.06,1.67,2.04c2.7,3.3,6.68,5.19,10.91,5.19h42.15c7.78,0,14.11-6.33,14.11-14.11v-36.44h0Z"/>
          </g>
        </g>
        <g>
          <g>
            <path class="cls-18" d="M185.15,361.36c-4.05,0-7.33-.94-9.75-2.79-2.47-1.89-3.88-4.57-4.18-7.97l-.1-1.09h10.94l.18.77c.19.8.51,1.36.96,1.68.48.33,1.29.51,2.36.51.9,0,1.59-.14,2.06-.42.37-.22.45-.44.45-.69,0-.28-.66-.96-3.16-1.59-.52-.13-.91-.23-1.19-.29-2.18-.56-3.93-1.08-5.22-1.54-1.36-.49-2.34-.94-2.99-1.38-1.26-.91-2.21-2-2.84-3.25-.62-1.25-.94-2.69-.94-4.27,0-3.19,1.23-5.74,3.65-7.57,2.33-1.77,5.55-2.67,9.54-2.67s7.09.86,9.39,2.55c2.37,1.74,3.73,4.25,4.03,7.46l.1,1.09h-10.79l-.14-.83c-.1-.59-.33-.99-.71-1.25-.44-.3-1.12-.45-2.04-.45-1.04,0-1.49.2-1.67.32-.15.1-.29.25-.29.67,0,0,.18.71,3.07,1.43.23.07.38.11.48.13l1.69.42c3.53.89,5.79,1.7,6.94,2.47,1.41.94,2.47,2.04,3.14,3.27.67,1.23,1.01,2.69,1.01,4.34,0,3.52-1.26,6.27-3.75,8.18-2.41,1.85-5.85,2.79-10.23,2.79Z"/>
            <path d="M184.91,329.8c3.73,0,6.66.79,8.8,2.35,2.14,1.57,3.35,3.82,3.62,6.75h-8.84c-.15-.85-.52-1.49-1.13-1.91-.61-.42-1.48-.63-2.61-.63-1,0-1.74.16-2.23.49s-.73.83-.73,1.5c0,.96,1.27,1.76,3.82,2.4.22.07.39.11.51.14.37.09.93.23,1.67.41,3.37.85,5.58,1.63,6.62,2.32,1.29.85,2.23,1.83,2.82,2.91.59,1.09.89,2.38.89,3.86,0,3.2-1.12,5.67-3.36,7.38s-5.44,2.58-9.62,2.58c-3.85,0-6.9-.86-9.15-2.58-2.25-1.72-3.52-4.14-3.79-7.27h9.06c.25,1.05.7,1.81,1.36,2.26.66.46,1.63.69,2.93.69,1.09,0,1.95-.19,2.57-.56s.94-.89.94-1.55c0-1.05-1.31-1.9-3.92-2.56-.53-.13-.93-.23-1.2-.29-2.14-.55-3.84-1.05-5.11-1.51-1.27-.45-2.19-.88-2.77-1.27-1.12-.8-1.95-1.76-2.51-2.88-.56-1.12-.84-2.39-.84-3.82,0-2.88,1.08-5.13,3.25-6.77,2.17-1.64,5.15-2.46,8.94-2.46M184.91,327.8c-4.22,0-7.64.96-10.15,2.87-2.68,2.03-4.04,4.85-4.04,8.37,0,1.74.35,3.33,1.05,4.72.7,1.4,1.76,2.62,3.13,3.61.58.4,1.33.78,2.29,1.16h-7.17l.19,2.18c.33,3.69,1.86,6.61,4.57,8.68,2.6,1.98,6.08,2.99,10.36,2.99,4.61,0,8.25-1.01,10.84-2.99,2.75-2.11,4.14-5.13,4.14-8.97,0-1.81-.38-3.43-1.13-4.81-.75-1.38-1.91-2.6-3.47-3.63-.52-.35-1.24-.7-2.16-1.06h6.16l-.21-2.19c-.33-3.51-1.82-6.26-4.43-8.17-2.48-1.82-5.84-2.74-9.99-2.74h0ZM184.63,338.36s.08,0,.12,0c.97,0,1.35.19,1.48.28.04.03.13.09.2.27-.07-.02-.15-.04-.25-.07h-.04s-.04-.02-.04-.02c-.64-.16-1.12-.32-1.48-.45h0ZM185.56,351.47c-1.22,0-1.68-.25-1.79-.33-.21-.15-.36-.44-.46-.73.04.01.09.02.13.03.31.07.7.17,1.22.3.93.23,1.53.46,1.91.64-.24.05-.57.09-1.01.09h0Z"/>
          </g>
          <g>
            <polygon class="cls-18" points="202.13 360.55 202.13 329.55 227.3 329.55 227.3 338.5 213.44 338.5 213.44 340.36 225.16 340.36 225.16 349.01 213.44 349.01 213.44 351.51 227.88 351.51 227.88 360.55 202.13 360.55"/>
            <path d="M226.3,330.55v6.95h-13.86v3.86h11.72v6.66h-11.72v4.49h14.44v7.05h-23.75v-29.01h23.18M228.3,328.55h-27.18v33.01h27.75v-11.05h-14.44v-.49h11.72v-10.52h2.14v-10.95h0Z"/>
          </g>
          <g>
            <polygon class="cls-18" points="249.9 360.55 241.88 347.34 241.88 360.55 231.03 360.55 231.03 329.55 241.44 329.55 249.47 342.86 249.47 329.55 260.35 329.55 260.35 360.55 249.9 360.55"/>
            <path d="M259.35,330.55v29.01h-8.88l-8.13-13.39c-.25-.39-.52-.95-.82-1.67-.3-.72-.59-1.55-.9-2.48.09.51.16,1.05.2,1.61.04.56.06,1.34.06,2.35v13.59h-8.84v-29.01h8.84l8.13,13.49c.25.38.52.92.8,1.62.28.7.58,1.54.9,2.52-.08-.51-.14-1.08-.18-1.69-.04-.62-.06-1.37-.06-2.25v-13.69h8.88M261.35,328.55h-12.88v10.72l-5.88-9.75-.58-.97h-11.97v33.01h12.84v-10.65l5.88,9.68.58.96h12.01v-33.01h0Z"/>
          </g>
          <g>
            <path class="cls-18" d="M277.82,361.36c-4.43,0-7.98-1.49-10.56-4.43-2.54-2.9-3.83-6.89-3.83-11.85s1.44-9.13,4.29-11.98c2.85-2.85,6.85-4.3,11.91-4.3,4,0,7.29,1.02,9.78,3.04,2.51,2.04,4.02,4.93,4.49,8.59l.14,1.13h-10.72l-.22-.71c-.3-.96-.75-1.66-1.37-2.14-.62-.47-1.39-.7-2.34-.7-1.52,0-2.61.55-3.34,1.69-.82,1.26-1.23,3.23-1.23,5.86,0,2.4.41,4.19,1.21,5.31.74,1.03,1.86,1.53,3.44,1.53,1.16,0,2.14-.26,2.92-.79.32-.22.59-.46.8-.74h-3.68v-8.2h14.74v17.89h-7.84l-.28-1.57c-.84.62-1.77,1.13-2.79,1.5-1.59.58-3.44.88-5.52.88Z"/>
            <path d="M279.63,329.8c3.78,0,6.83.94,9.15,2.82,2.32,1.88,3.69,4.52,4.12,7.94h-8.84c-.36-1.16-.93-2.04-1.72-2.64-.79-.6-1.78-.91-2.94-.91-1.86,0-3.26.72-4.18,2.15-.93,1.43-1.39,3.56-1.39,6.4,0,2.63.47,4.59,1.4,5.89s2.35,1.95,4.25,1.95c1.37,0,2.53-.32,3.48-.96s1.54-1.49,1.76-2.57h-4.19v-6.2h12.74v15.89h-6.01l-.45-2.5c-1.05,1.12-2.32,1.95-3.8,2.49-1.48.54-3.21.82-5.18.82-4.15,0-7.42-1.36-9.81-4.09-2.39-2.72-3.58-6.46-3.58-11.2s1.33-8.6,4-11.27c2.67-2.67,6.4-4.01,11.21-4.01M279.63,327.8c-5.33,0-9.58,1.55-12.62,4.6-3.04,3.05-4.58,7.32-4.58,12.69s1.37,9.43,4.08,12.51c2.77,3.16,6.58,4.77,11.31,4.77,2.2,0,4.17-.32,5.87-.94.6-.22,1.18-.48,1.73-.79l.17.92h9.68v-19.89h-.2l-.17-1.36c-.5-3.93-2.13-7.03-4.85-9.24-2.67-2.17-6.18-3.26-10.41-3.26h0ZM278.52,351.31c-.96-.19-1.41-.66-1.67-1.03-.67-.93-1.02-2.57-1.02-4.72,0-2.4.37-4.23,1.07-5.31.37-.57.99-1.23,2.51-1.23.73,0,1.29.16,1.73.5.46.35.79.88,1.03,1.64l.16.52h-3.79v9.64h0Z"/>
          </g>
          <g>
            <polygon class="cls-18" points="317.41 360.55 310.7 349.56 309.58 350.72 309.58 360.55 298.34 360.55 298.34 329.55 309.58 329.55 309.58 337.48 316.47 329.55 330.1 329.55 318.65 341.37 330.91 360.55 317.41 360.55"/>
            <path d="M327.74,330.55l-10.36,10.69,11.7,18.31h-11.11l-7.09-11.62-2.3,2.38v9.24h-9.24v-29.01h9.24v9.61l8.35-9.61h10.81M332.46,328.55h-16.45l-.6.69-4.84,5.57v-6.26h-13.24v33.01h13.24v-10.28l5.69,9.32.58.96h15.88l-1.97-3.08-10.85-16.98,9.26-9.56,3.29-3.39h0Z"/>
          </g>
          <g>
            <path class="cls-18" d="M343.89,361.36c-4.69,0-8.36-1.05-10.89-3.11-2.6-2.11-3.91-5.17-3.91-9.1v-19.61h11.32v18.88c0,1.36.26,2.34.75,2.83.48.49,1.43.75,2.74.75s2.19-.25,2.66-.73c.48-.49.73-1.47.73-2.85v-18.88h11.31v19.61c0,3.93-1.31,7-3.88,9.11-2.52,2.06-6.16,3.1-10.82,3.1Z"/>
            <path d="M357.6,330.55v18.61c0,3.64-1.17,6.41-3.51,8.33-2.34,1.92-5.74,2.88-10.19,2.88s-7.9-.96-10.26-2.89c-2.36-1.92-3.54-4.7-3.54-8.32v-18.61h9.32v17.88c0,1.65.34,2.83,1.03,3.54.69.7,1.84,1.05,3.46,1.05s2.7-.34,3.38-1.03,1.01-1.87,1.01-3.55v-17.88h9.31M359.6,328.55h-13.31v19.88c0,1.62-.37,2.08-.44,2.15-.1.1-.54.43-1.95.43s-1.92-.35-2.03-.45c-.11-.11-.46-.59-.46-2.13v-19.88h-13.32v20.61c0,4.24,1.44,7.56,4.28,9.87,2.72,2.21,6.59,3.33,11.52,3.33s8.76-1.12,11.46-3.33c2.82-2.31,4.25-5.63,4.25-9.88v-20.61h0Z"/>
          </g>
          <g>
            <polygon class="cls-18" points="370.42 360.55 370.42 349.09 359 329.55 371.68 329.55 376.07 338.22 380.5 329.55 392.87 329.55 381.73 349.09 381.73 360.55 370.42 360.55"/>
            <path d="M391.15,330.55l-10.42,18.28v10.73h-9.31v-10.73l-10.67-18.28h10.32l5,9.89,5.04-9.89h10.04M394.59,328.55h-14.71l-.56,1.09-3.25,6.38-3.22-6.37-.56-1.1h-15.03l1.76,3.01,10.4,17.81v12.19h13.31v-12.2l10.16-17.81,1.7-2.99h0Z"/>
          </g>
          <g>
            <path class="cls-18" d="M408.05,361.36c-4.69,0-8.36-1.05-10.89-3.11-2.6-2.11-3.91-5.17-3.91-9.1v-19.61h11.32v18.88c0,1.36.26,2.34.75,2.83.48.49,1.43.75,2.74.75s2.19-.25,2.66-.73c.48-.49.73-1.47.73-2.85v-18.88h11.31v19.61c0,3.93-1.31,7-3.88,9.11-2.52,2.06-6.16,3.1-10.82,3.1Z"/>
            <path d="M421.75,330.55v18.61c0,3.64-1.17,6.41-3.51,8.33-2.34,1.92-5.74,2.88-10.19,2.88s-7.9-.96-10.26-2.89c-2.36-1.92-3.54-4.7-3.54-8.32v-18.61h9.32v17.88c0,1.65.34,2.83,1.03,3.54.69.7,1.84,1.05,3.46,1.05s2.7-.34,3.38-1.03,1.01-1.87,1.01-3.55v-17.88h9.31M423.75,328.55h-13.31v19.88c0,1.62-.37,2.08-.44,2.15-.1.1-.54.43-1.95.43s-1.92-.35-2.03-.45c-.11-.11-.46-.59-.46-2.13v-19.88h-13.32v20.61c0,4.24,1.44,7.56,4.28,9.87,2.72,2.21,6.59,3.33,11.52,3.33s8.76-1.12,11.46-3.33c2.82-2.31,4.25-5.63,4.25-9.88v-20.61h0Z"/>
          </g>
          <g>
            <polygon class="cls-18" points="445.87 360.55 437.84 347.34 437.84 360.55 427 360.55 427 329.55 437.4 329.55 445.43 342.86 445.43 329.55 456.31 329.55 456.31 360.55 445.87 360.55"/>
            <path d="M455.31,330.55v29.01h-8.88l-8.13-13.39c-.25-.39-.52-.95-.82-1.67-.3-.72-.59-1.55-.9-2.48.09.51.16,1.05.2,1.61.04.56.06,1.34.06,2.35v13.59h-8.84v-29.01h8.84l8.13,13.49c.25.38.52.92.8,1.62s.58,1.54.9,2.52c-.08-.51-.14-1.08-.18-1.69-.04-.62-.06-1.37-.06-2.25v-13.69h8.88M457.31,328.55h-12.88v10.72l-5.88-9.75-.58-.97h-11.97v33.01h12.84v-10.65l5.88,9.68.58.96h12.01v-33.01h0Z"/>
          </g>
          <g>
            <path class="cls-18" d="M473.78,361.36c-4.43,0-7.98-1.49-10.56-4.43-2.54-2.9-3.83-6.89-3.83-11.85s1.44-9.13,4.29-11.98c2.85-2.85,6.86-4.3,11.91-4.3,4,0,7.29,1.02,9.78,3.04,2.51,2.04,4.02,4.93,4.49,8.59l.14,1.13h-10.72l-.22-.71c-.29-.96-.74-1.66-1.37-2.13-.62-.47-1.39-.7-2.34-.7-1.52,0-2.61.55-3.35,1.69-.81,1.26-1.23,3.23-1.23,5.86,0,2.4.41,4.19,1.21,5.31.74,1.03,1.86,1.53,3.44,1.53,1.16,0,2.14-.26,2.92-.79.32-.22.59-.46.8-.74h-3.68v-8.2h14.74v17.89h-7.84l-.29-1.57c-.84.62-1.77,1.13-2.79,1.5-1.59.58-3.45.88-5.52.88Z"/>
            <path d="M475.59,329.8c3.78,0,6.83.94,9.15,2.82,2.32,1.88,3.69,4.52,4.12,7.94h-8.84c-.35-1.16-.93-2.04-1.72-2.64-.79-.6-1.78-.91-2.94-.91-1.86,0-3.26.72-4.19,2.15-.92,1.43-1.39,3.56-1.39,6.4,0,2.63.47,4.59,1.4,5.89.93,1.3,2.35,1.95,4.25,1.95,1.37,0,2.52-.32,3.48-.96.95-.64,1.54-1.49,1.76-2.57h-4.19v-6.2h12.74v15.89h-6.01l-.45-2.5c-1.05,1.12-2.32,1.95-3.8,2.49s-3.21.82-5.18.82c-4.15,0-7.42-1.36-9.81-4.09-2.39-2.72-3.58-6.46-3.58-11.2s1.33-8.6,4-11.27,6.4-4.01,11.21-4.01M475.59,327.8c-5.33,0-9.58,1.55-12.62,4.6-3.04,3.05-4.58,7.32-4.58,12.69s1.37,9.43,4.08,12.51c2.77,3.16,6.58,4.77,11.31,4.77,2.2,0,4.17-.32,5.87-.94.6-.22,1.18-.48,1.73-.79l.17.92h9.68v-19.89h-.2l-.17-1.36c-.5-3.92-2.13-7.03-4.85-9.24-2.67-2.17-6.17-3.26-10.41-3.26h0ZM474.48,351.31c-.96-.19-1.4-.66-1.67-1.03-.67-.93-1.02-2.57-1.02-4.72,0-2.4.37-4.23,1.07-5.32.37-.57.99-1.23,2.51-1.23.73,0,1.29.16,1.73.5.46.35.79.88,1.02,1.63l.16.52h-3.79v9.64h0Z"/>
          </g>
        </g>
        <g>
          <rect class="cls-18" x="172.55" y="369.54" width="169.37" height="24.45"/>
          <path d="M340.92,370.54v22.45h-167.37v-22.45h167.37M342.92,368.54h-171.37v26.45h171.37v-26.45h0Z"/>
        </g>
        <g>
          <rect class="cls-12" x="339.92" y="369.54" width="151.67" height="24.45"/>
          <path d="M490.58,370.54v22.45h-149.67v-22.45h149.67M492.58,368.54h-153.67v26.45h153.67v-26.45h0Z"/>
        </g>
        <text class="cls-17" transform="translate(178.12 386.95)"><tspan class="cls-4" x="0" y="0">Tuntaskan Piutang </tspan><tspan class="cls-5" x="164.11" y="0"> </tspan><tspan class="cls-22" x="168.66" y="0">jaga Kepatuhan</tspan></text>
        <g>
          <g>
            <path class="cls-18" d="M505.94,351.69c-7.46,0-13.53-6.07-13.53-13.53s6.07-13.53,13.53-13.53,13.53,6.07,13.53,13.53-6.07,13.53-13.53,13.53Z"/>
            <path d="M505.94,325.63c6.92,0,12.53,5.61,12.53,12.53s-5.61,12.53-12.53,12.53-12.53-5.61-12.53-12.53,5.61-12.53,12.53-12.53M505.94,323.63c-8.01,0-14.53,6.52-14.53,14.53s6.52,14.53,14.53,14.53,14.53-6.52,14.53-14.53-6.52-14.53-14.53-14.53h0Z"/>
          </g>
          <text class="cls-11" transform="translate(495.17 343.9)"><tspan x="0" y="0">+3</tspan></text>
        </g>
      </g>
      <g class="cls-20">
        <g>
          <g>
            <path class="cls-14" d="M101.83,455.59c0-7.23,5.88-13.11,13.11-13.11h42.15c4.09,0,8.01,1.98,10.49,5.29l.68.91-10.44,5.91-17.59,10.11c-1.34,1.15-2.29,2.23-2.58,3.76-.25,1.33-.21,2.85-.17,4.31.01.41.02.81.03,1.21v7.12l-2.24,1.29c-1.86,1.08-3.73,2.15-5.6,3.2-.5.28-1.11.44-1.65.44h0c-.22,0-.43-.03-.63-.08-1.35-.38-1.33-1.74-1.33-2.32v-3.58c.01-3.16.02-6.31,0-9.46-.03-4.65,1.99-8.17,6.02-10.44,1.18-.67,2.35-1.35,3.51-2.03.87-.51,1.73-1.01,2.6-1.51,1.69-.97,2.53-2.36,2.58-4.24.02-.65.03-1.29,0-1.94,0-.19-.05-.29-.06-.31,0,.03-.1.04-.28.14-1.09.61-2.17,1.23-3.25,1.86l-1.8,1.03c-.19.11-.39.21-.53.28l-1.18.61-.35-1.15c-.1-.34-.19-.68-.28-1.01-.18-.67-.35-1.29-.6-1.84-.08-.16-.14-.25-.18-.3-.07.03-.19.11-.37.29l-12.12,12.03c-.23.23-.47.45-.71.67-.49.44-.94.85-1.25,1.31-.58.87-1.3,2.01-1.62,3.17-1.05,3.71-2.05,7.5-3.01,11.17l-1.03,3.92c-.9,3.4-2.99,5.9-6.22,7.45l-4.08,2.58v-36.73Z"/>
            <path class="cls-1" d="M157.08,443.48c3.96,0,7.48,1.93,9.69,4.89l-9.45,5.35c-5.89,3.39-11.79,6.77-17.68,10.16-1.41,1.2-2.62,2.5-2.98,4.39-.34,1.81-.19,3.84-.16,5.72v6.53c-2.44,1.4-4.87,2.82-7.33,4.19-.33.18-.77.32-1.16.32-.13,0-.25-.01-.36-.05-.66-.19-.6-.9-.6-1.49,0-4.3.02-8.61,0-12.91-.03-4.28,1.78-7.46,5.51-9.57,2.05-1.16,4.08-2.38,6.12-3.55,1.97-1.13,3.02-2.8,3.08-5.08.02-.67.03-1.33,0-2-.03-.8-.43-1.25-1.01-1.25-.24,0-.52.08-.81.24-1.69.95-3.37,1.93-5.06,2.9-.23.13-.48.25-.61.32-.32-1.06-.51-2.07-.93-2.98-.28-.61-.64-.9-1.04-.9-.34,0-.72.21-1.12.6-4.04,4.01-8.08,8.02-12.12,12.03-.71.7-1.55,1.32-2.09,2.13-.72,1.07-1.41,2.23-1.76,3.45-1.42,5.02-2.71,10.07-4.05,15.11-.84,3.18-2.78,5.42-5.74,6.83l-2.6,1.64v-34.91c0-6.66,5.45-12.11,12.11-12.11h42.15M157.08,441.48h-42.15c-7.78,0-14.11,6.33-14.11,14.11v38.54l3.07-1.94,2.5-1.58c3.47-1.68,5.73-4.39,6.7-8.07.35-1.31.69-2.62,1.04-3.93.96-3.66,1.96-7.45,3-11.15.29-1.02.95-2.08,1.49-2.88.24-.36.65-.73,1.09-1.13.25-.23.51-.46.75-.7l3.4-3.37c2.67-2.65,5.34-5.3,8.01-7.95.06.22.12.45.19.69.09.34.18.69.29,1.04l.69,2.29,2.13-1.09.1-.05c.16-.08.38-.19.59-.31.59-.33,1.17-.67,1.75-1.01.71-.41,1.43-.82,2.14-1.23,0,.18,0,.37-.01.56-.04,1.55-.68,2.59-2.08,3.4-.88.5-1.75,1.02-2.63,1.53-1.16.68-2.31,1.35-3.48,2.01-4.36,2.47-6.56,6.28-6.53,11.32.02,3.16.02,6.38.01,9.49v3.41s0,.13,0,.13c-.02,1.8.68,2.9,2.06,3.29.28.08.58.12.9.12.71,0,1.49-.21,2.13-.57,1.87-1.04,3.74-2.12,5.56-3.17l1.79-1.03,1-.58v-7.69c0-.43-.02-.84-.03-1.25-.04-1.42-.08-2.88.15-4.1.23-1.21,1.03-2.13,2.18-3.12,4.11-2.36,8.22-4.73,12.34-7.09l5.18-2.98,9.44-5.34,1.98-1.12-1.36-1.82c-2.67-3.56-6.89-5.69-11.29-5.69h0Z"/>
          </g>
          <g>
            <path class="cls-7" d="M114.94,510.85c-3.93,0-7.62-1.76-10.14-4.82l-.83-1.02,10.67-4.7s17.29-9.99,21.65-12.52c1.51-.87,2.28-2.2,2.34-4.04.03-.88.02-1.78,0-2.77,0-.25-.05-.39-.08-.45,0,.03-.13.06-.35.18l-2.69,1.55v-8.83l7.82-4.52c.89-.72,1.89-1.11,2.83-1.11,1.06,0,1.99.52,2.63,1.46.66.99.66,2.37.65,3.48,0,.24,0,.47,0,.67.06,1.6.1,3.21.14,4.81,0,.47.03.96.05,1.45.09,2.36.2,5.03-.83,7.36-.88,1.98-2.45,3.7-4.81,5.25-.6.54-1.27,1.03-1.99,1.46-1.75,1.05-3.52,2.07-5.29,3.09-1.67,1.74-2.46,3.97-2.29,6.38l1.73-.99c4.52-2.59,9.04-5.19,13.55-7.79l.72-.41c1.26-.72,2.57-1.47,3.77-2.3,1.67-1.15,2.8-2.82,3.36-4.96.49-1.88.99-3.75,1.49-5.62.79-2.95,1.57-5.9,2.33-8.86.73-2.84,2.09-4.98,4.17-6.54.18-.13.37-.26.56-.38l.24-.16,3.87-2.17v34.73c0,7.23-5.88,13.11-13.11,13.11h-42.15Z"/>
            <path class="cls-1" d="M169.2,464.72v33.02c0,6.66-5.45,12.11-12.11,12.11h-42.15c-3.76,0-7.14-1.74-9.36-4.45l9.51-4.19c7.23-4.18,14.47-8.36,21.69-12.54,1.87-1.08,2.76-2.75,2.84-4.87.03-.94.02-1.89,0-2.83-.02-.91-.4-1.4-1.01-1.4-.27,0-.57.09-.91.29-.4.23-.8.46-1.2.69v-6.53c2.46-1.42,4.93-2.84,7.39-4.27.65-.54,1.47-.94,2.26-.94.67,0,1.31.29,1.8,1.02.62.93.45,2.62.48,3.63.06,1.6.1,3.2.14,4.8.05,2.73.44,5.82-.69,8.39-.93,2.1-2.62,3.63-4.5,4.86-.56.51-1.19.98-1.89,1.4-1.78,1.07-3.59,2.11-5.39,3.15-2.2,2.22-3.17,5.31-2.46,8.66,0,.03,0,.07.01.1.06-.03.12-.05.18-.09,5.46-3.14,10.93-6.27,16.38-9.42,1.54-.89,3.1-1.75,4.55-2.76,1.94-1.34,3.16-3.23,3.76-5.53,1.27-4.83,2.58-9.65,3.82-14.49.62-2.42,1.79-4.47,3.8-5.99.24-.18.5-.34.76-.51l2.31-1.29M171.2,461.3l-2.98,1.67-2.31,1.29-.07.04-.07.05-.22.15c-.21.14-.42.28-.62.43-2.26,1.71-3.74,4.02-4.53,7.09-.76,2.95-1.56,5.96-2.33,8.86-.5,1.87-1,3.74-1.49,5.62-.51,1.93-1.48,3.36-2.96,4.39-1.17.81-2.4,1.51-3.71,2.26l-.71.41c-4.57,2.64-9.15,5.27-13.72,7.9.21-1.42.84-2.73,1.85-3.83,1.54-.88,3.4-1.96,5.18-3.03.75-.45,1.45-.97,2.08-1.53,2.49-1.65,4.16-3.49,5.11-5.64,1.12-2.54,1.01-5.34.91-7.8-.02-.48-.04-.96-.05-1.43-.03-1.62-.08-3.25-.14-4.83,0-.19,0-.4,0-.63,0-1.18.02-2.8-.82-4.05-.82-1.23-2.05-1.9-3.46-1.9-1.14,0-2.34.46-3.39,1.28l-2.15,1.24-5.1,2.95-1,.58v11.14l3-1.72.14-.08c0,.53,0,1.03-.02,1.53-.05,1.5-.64,2.52-1.84,3.21-4.15,2.4-8.3,4.8-12.45,7.2l-9.15,5.29-9.41,4.15-2.41,1.06,1.67,2.04c2.7,3.3,6.68,5.19,10.91,5.19h42.15c7.78,0,14.11-6.33,14.11-14.11v-36.44h0Z"/>
          </g>
        </g>
        <g>
          <g>
            <path class="cls-7" d="M192.27,477.66c-4.05,0-7.33-.94-9.75-2.79-2.47-1.89-3.88-4.57-4.18-7.97l-.1-1.09h10.94l.18.77c.19.8.51,1.36.96,1.68.48.33,1.29.51,2.36.51.9,0,1.59-.14,2.06-.42.37-.22.45-.44.45-.69,0-.28-.66-.96-3.16-1.59-.52-.13-.91-.23-1.19-.29-2.18-.56-3.93-1.08-5.22-1.54-1.36-.49-2.34-.94-2.99-1.38-1.26-.91-2.21-2-2.84-3.25-.62-1.25-.94-2.69-.94-4.27,0-3.19,1.23-5.74,3.65-7.57,2.33-1.77,5.55-2.67,9.54-2.67s7.09.86,9.39,2.55c2.37,1.74,3.73,4.25,4.03,7.46l.1,1.09h-10.79l-.14-.83c-.1-.59-.33-.99-.71-1.25-.44-.3-1.12-.45-2.04-.45-1.04,0-1.49.2-1.67.32-.15.1-.29.25-.29.67,0,0,.18.71,3.07,1.43.23.07.38.11.48.13l1.69.42c3.53.89,5.79,1.7,6.94,2.47,1.41.94,2.47,2.04,3.14,3.27.67,1.23,1.01,2.69,1.01,4.34,0,3.52-1.26,6.27-3.75,8.18-2.41,1.85-5.85,2.79-10.23,2.79Z"/>
            <path class="cls-1" d="M192.04,446.1c3.73,0,6.66.79,8.8,2.35,2.14,1.57,3.35,3.82,3.62,6.75h-8.84c-.15-.85-.52-1.49-1.13-1.91-.61-.42-1.48-.63-2.61-.63-1,0-1.74.16-2.23.49s-.73.83-.73,1.5c0,.96,1.27,1.76,3.82,2.4.22.07.39.11.51.14.37.09.93.23,1.67.41,3.37.85,5.58,1.63,6.62,2.32,1.29.85,2.23,1.83,2.82,2.91.59,1.09.89,2.38.89,3.86,0,3.2-1.12,5.67-3.36,7.38s-5.44,2.58-9.62,2.58c-3.85,0-6.9-.86-9.15-2.58-2.25-1.72-3.52-4.14-3.79-7.27h9.06c.25,1.05.7,1.81,1.36,2.26.66.46,1.63.69,2.93.69,1.09,0,1.95-.19,2.57-.56s.94-.89.94-1.55c0-1.05-1.31-1.9-3.92-2.56-.53-.13-.93-.23-1.2-.29-2.14-.55-3.84-1.05-5.11-1.51-1.27-.45-2.19-.88-2.77-1.27-1.12-.8-1.95-1.76-2.51-2.88-.56-1.12-.84-2.39-.84-3.82,0-2.88,1.08-5.13,3.25-6.77,2.17-1.64,5.15-2.46,8.94-2.46M192.04,444.1c-4.22,0-7.64.96-10.15,2.87-2.68,2.03-4.04,4.85-4.04,8.37,0,1.74.35,3.33,1.05,4.72.7,1.4,1.76,2.62,3.13,3.61.58.4,1.33.78,2.29,1.16h-7.17l.19,2.18c.33,3.69,1.86,6.61,4.57,8.68,2.6,1.98,6.08,2.99,10.36,2.99,4.61,0,8.25-1.01,10.84-2.99,2.75-2.11,4.14-5.13,4.14-8.97,0-1.81-.38-3.43-1.13-4.81-.75-1.38-1.91-2.6-3.47-3.63-.52-.35-1.24-.7-2.16-1.06h6.16l-.21-2.19c-.33-3.51-1.82-6.26-4.43-8.17-2.48-1.82-5.84-2.74-9.99-2.74h0ZM191.76,454.66s.08,0,.12,0c.97,0,1.35.19,1.48.28.04.03.13.09.2.27-.07-.02-.15-.04-.25-.07h-.04s-.04-.02-.04-.02c-.64-.16-1.12-.32-1.48-.45h0ZM192.69,467.77c-1.22,0-1.68-.25-1.79-.33-.21-.15-.36-.44-.46-.73.04.01.09.02.13.03.31.07.7.17,1.22.3.93.23,1.53.46,1.91.64-.24.05-.57.09-1.01.09h0Z"/>
          </g>
          <g>
            <polygon class="cls-7" points="209.25 476.86 209.25 445.85 234.43 445.85 234.43 454.8 220.57 454.8 220.57 456.66 232.29 456.66 232.29 465.32 220.57 465.32 220.57 467.81 235 467.81 235 476.86 209.25 476.86"/>
            <path class="cls-1" d="M233.43,446.85v6.95h-13.86v3.86h11.72v6.66h-11.72v4.49h14.44v7.05h-23.75v-29.01h23.18M235.43,444.85h-27.18v33.01h27.75v-11.05h-14.44v-.49h11.72v-10.52h2.14v-10.95h0Z"/>
          </g>
          <g>
            <polygon class="cls-7" points="257.03 476.86 249.01 463.64 249.01 476.86 238.16 476.86 238.16 445.85 248.57 445.85 256.6 459.16 256.6 445.85 267.48 445.85 267.48 476.86 257.03 476.86"/>
            <path class="cls-1" d="M266.48,446.85v29.01h-8.88l-8.13-13.39c-.25-.39-.52-.95-.82-1.67-.3-.72-.59-1.55-.9-2.48.09.51.16,1.05.2,1.61.04.56.06,1.34.06,2.35v13.59h-8.84v-29.01h8.84l8.13,13.49c.25.38.52.92.8,1.62.28.7.58,1.54.9,2.52-.08-.51-.14-1.08-.18-1.69-.04-.62-.06-1.37-.06-2.25v-13.69h8.88M268.48,444.85h-12.88v10.72l-5.88-9.75-.58-.97h-11.97v33.01h12.84v-10.65l5.88,9.68.58.96h12.01v-33.01h0Z"/>
          </g>
          <g>
            <path class="cls-7" d="M284.95,477.66c-4.43,0-7.98-1.49-10.56-4.43-2.54-2.9-3.83-6.89-3.83-11.85s1.44-9.13,4.29-11.98c2.85-2.85,6.85-4.3,11.91-4.3,4,0,7.29,1.02,9.78,3.04,2.51,2.04,4.02,4.93,4.49,8.59l.14,1.13h-10.72l-.22-.71c-.3-.96-.75-1.66-1.37-2.14-.62-.47-1.39-.7-2.34-.7-1.52,0-2.61.55-3.34,1.69-.82,1.26-1.23,3.23-1.23,5.86,0,2.4.41,4.19,1.21,5.31.74,1.03,1.86,1.53,3.44,1.53,1.16,0,2.14-.26,2.92-.79.32-.22.59-.46.8-.74h-3.68v-8.2h14.74v17.89h-7.84l-.28-1.57c-.84.62-1.77,1.13-2.79,1.5-1.59.58-3.44.88-5.52.88Z"/>
            <path class="cls-1" d="M286.76,446.1c3.78,0,6.83.94,9.15,2.82,2.32,1.88,3.69,4.52,4.12,7.94h-8.84c-.36-1.16-.93-2.04-1.72-2.64-.79-.6-1.78-.91-2.94-.91-1.86,0-3.26.72-4.18,2.15-.93,1.43-1.39,3.56-1.39,6.4,0,2.63.47,4.59,1.4,5.89s2.35,1.95,4.25,1.95c1.37,0,2.53-.32,3.48-.96s1.54-1.49,1.76-2.57h-4.19v-6.2h12.74v15.89h-6.01l-.45-2.5c-1.05,1.12-2.32,1.95-3.8,2.49-1.48.54-3.21.82-5.18.82-4.15,0-7.42-1.36-9.81-4.09-2.39-2.72-3.58-6.46-3.58-11.2s1.33-8.6,4-11.27c2.67-2.67,6.4-4.01,11.21-4.01M286.76,444.1c-5.33,0-9.58,1.55-12.62,4.6-3.04,3.05-4.58,7.32-4.58,12.69s1.37,9.43,4.08,12.51c2.77,3.16,6.58,4.77,11.31,4.77,2.2,0,4.17-.32,5.87-.94.6-.22,1.18-.48,1.73-.79l.17.92h9.68v-19.89h-.2l-.17-1.36c-.5-3.93-2.13-7.03-4.85-9.24-2.67-2.17-6.18-3.26-10.41-3.26h0ZM285.65,467.61c-.96-.19-1.41-.66-1.67-1.03-.67-.93-1.02-2.57-1.02-4.72,0-2.4.37-4.23,1.07-5.31.37-.57.99-1.23,2.51-1.23.73,0,1.29.16,1.73.5.46.35.79.88,1.03,1.64l.16.52h-3.79v9.64h0Z"/>
          </g>
          <g>
            <polygon class="cls-7" points="324.54 476.86 317.83 465.86 316.71 467.02 316.71 476.86 305.47 476.86 305.47 445.85 316.71 445.85 316.71 453.78 323.6 445.85 337.23 445.85 325.78 457.67 338.03 476.86 324.54 476.86"/>
            <path class="cls-1" d="M334.87,446.85l-10.36,10.69,11.7,18.31h-11.11l-7.09-11.62-2.3,2.38v9.24h-9.24v-29.01h9.24v9.61l8.35-9.61h10.81M339.59,444.85h-16.45l-.6.69-4.84,5.57v-6.26h-13.24v33.01h13.24v-10.28l5.69,9.32.58.96h15.88l-1.97-3.08-10.85-16.98,9.26-9.56,3.29-3.39h0Z"/>
          </g>
          <g>
            <path class="cls-7" d="M351.02,477.66c-4.69,0-8.36-1.05-10.89-3.11-2.6-2.11-3.91-5.17-3.91-9.1v-19.61h11.32v18.88c0,1.36.26,2.34.75,2.83.48.49,1.43.75,2.74.75s2.19-.25,2.66-.73c.48-.49.73-1.47.73-2.85v-18.88h11.31v19.61c0,3.93-1.31,7-3.88,9.11-2.52,2.06-6.16,3.1-10.82,3.1Z"/>
            <path class="cls-1" d="M364.72,446.85v18.61c0,3.64-1.17,6.41-3.51,8.33-2.34,1.92-5.74,2.88-10.19,2.88s-7.9-.96-10.26-2.89c-2.36-1.92-3.54-4.7-3.54-8.32v-18.61h9.32v17.88c0,1.65.34,2.83,1.03,3.54.69.7,1.84,1.05,3.46,1.05s2.7-.34,3.38-1.03,1.01-1.87,1.01-3.55v-17.88h9.31M366.72,444.85h-13.31v19.88c0,1.62-.37,2.08-.44,2.15-.1.1-.54.43-1.95.43s-1.92-.35-2.03-.45c-.11-.11-.46-.59-.46-2.13v-19.88h-13.32v20.61c0,4.24,1.44,7.56,4.28,9.87,2.72,2.21,6.59,3.33,11.52,3.33s8.76-1.12,11.46-3.33c2.82-2.31,4.25-5.63,4.25-9.88v-20.61h0Z"/>
          </g>
          <g>
            <polygon class="cls-7" points="377.55 476.86 377.55 465.39 366.13 445.85 378.81 445.85 383.2 454.53 387.63 445.85 400 445.85 388.86 465.39 388.86 476.86 377.55 476.86"/>
            <path class="cls-1" d="M398.28,446.85l-10.42,18.28v10.73h-9.31v-10.73l-10.67-18.28h10.32l5,9.89,5.04-9.89h10.04M401.72,444.85h-14.71l-.56,1.09-3.25,6.38-3.22-6.37-.56-1.1h-15.03l1.76,3.01,10.4,17.81v12.19h13.31v-12.2l10.16-17.81,1.7-2.99h0Z"/>
          </g>
          <g>
            <path class="cls-7" d="M415.18,477.66c-4.69,0-8.36-1.05-10.89-3.11-2.6-2.11-3.91-5.17-3.91-9.1v-19.61h11.32v18.88c0,1.36.26,2.34.75,2.83.48.49,1.43.75,2.74.75s2.19-.25,2.66-.73c.48-.49.73-1.47.73-2.85v-18.88h11.31v19.61c0,3.93-1.31,7-3.88,9.11-2.52,2.06-6.16,3.1-10.82,3.1Z"/>
            <path class="cls-1" d="M428.88,446.85v18.61c0,3.64-1.17,6.41-3.51,8.33-2.34,1.92-5.74,2.88-10.19,2.88s-7.9-.96-10.26-2.89c-2.36-1.92-3.54-4.7-3.54-8.32v-18.61h9.32v17.88c0,1.65.34,2.83,1.03,3.54.69.7,1.84,1.05,3.46,1.05s2.7-.34,3.38-1.03,1.01-1.87,1.01-3.55v-17.88h9.31M430.88,444.85h-13.31v19.88c0,1.62-.37,2.08-.44,2.15-.1.1-.54.43-1.95.43s-1.92-.35-2.03-.45c-.11-.11-.46-.59-.46-2.13v-19.88h-13.32v20.61c0,4.24,1.44,7.56,4.28,9.87,2.72,2.21,6.59,3.33,11.52,3.33s8.76-1.12,11.46-3.33c2.82-2.31,4.25-5.63,4.25-9.88v-20.61h0Z"/>
          </g>
          <g>
            <polygon class="cls-7" points="453 476.86 444.97 463.64 444.97 476.86 434.13 476.86 434.13 445.85 444.53 445.85 452.56 459.16 452.56 445.85 463.44 445.85 463.44 476.86 453 476.86"/>
            <path class="cls-1" d="M462.44,446.85v29.01h-8.88l-8.13-13.39c-.25-.39-.52-.95-.82-1.67-.3-.72-.59-1.55-.9-2.48.09.51.16,1.05.2,1.61.04.56.06,1.34.06,2.35v13.59h-8.84v-29.01h8.84l8.13,13.49c.25.38.52.92.8,1.62s.58,1.54.9,2.52c-.08-.51-.14-1.08-.18-1.69-.04-.62-.06-1.37-.06-2.25v-13.69h8.88M464.44,444.85h-12.88v10.72l-5.88-9.75-.58-.97h-11.97v33.01h12.84v-10.65l5.88,9.68.58.96h12.01v-33.01h0Z"/>
          </g>
          <g>
            <path class="cls-7" d="M480.91,477.66c-4.43,0-7.98-1.49-10.56-4.43-2.54-2.9-3.83-6.89-3.83-11.85s1.44-9.13,4.29-11.98c2.85-2.85,6.86-4.3,11.91-4.3,4,0,7.29,1.02,9.78,3.04,2.51,2.04,4.02,4.93,4.49,8.59l.14,1.13h-10.72l-.22-.71c-.29-.96-.74-1.66-1.37-2.13-.62-.47-1.39-.7-2.34-.7-1.52,0-2.61.55-3.35,1.69-.81,1.26-1.23,3.23-1.23,5.86,0,2.4.41,4.19,1.21,5.31.74,1.03,1.86,1.53,3.44,1.53,1.16,0,2.14-.26,2.92-.79.32-.22.59-.46.8-.74h-3.68v-8.2h14.74v17.89h-7.84l-.29-1.57c-.84.62-1.77,1.13-2.79,1.5-1.59.58-3.45.88-5.52.88Z"/>
            <path class="cls-1" d="M482.72,446.1c3.78,0,6.83.94,9.15,2.82,2.32,1.88,3.69,4.52,4.12,7.94h-8.84c-.35-1.16-.93-2.04-1.72-2.64-.79-.6-1.78-.91-2.94-.91-1.86,0-3.26.72-4.19,2.15-.92,1.43-1.39,3.56-1.39,6.4,0,2.63.47,4.59,1.4,5.89.93,1.3,2.35,1.95,4.25,1.95,1.37,0,2.52-.32,3.48-.96.95-.64,1.54-1.49,1.76-2.57h-4.19v-6.2h12.74v15.89h-6.01l-.45-2.5c-1.05,1.12-2.32,1.95-3.8,2.49s-3.21.82-5.18.82c-4.15,0-7.42-1.36-9.81-4.09-2.39-2.72-3.58-6.46-3.58-11.2s1.33-8.6,4-11.27,6.4-4.01,11.21-4.01M482.72,444.1c-5.33,0-9.58,1.55-12.62,4.6-3.04,3.05-4.58,7.32-4.58,12.69s1.37,9.43,4.08,12.51c2.77,3.16,6.58,4.77,11.31,4.77,2.2,0,4.17-.32,5.87-.94.6-.22,1.18-.48,1.73-.79l.17.92h9.68v-19.89h-.2l-.17-1.36c-.5-3.92-2.13-7.03-4.85-9.24-2.67-2.17-6.17-3.26-10.41-3.26h0ZM481.61,467.61c-.96-.19-1.4-.66-1.67-1.03-.67-.93-1.02-2.57-1.02-4.72,0-2.4.37-4.23,1.07-5.32.37-.57.99-1.23,2.51-1.23.73,0,1.29.16,1.73.5.46.35.79.88,1.02,1.63l.16.52h-3.79v9.64h0Z"/>
          </g>
        </g>
        <g>
          <rect class="cls-14" x="179.68" y="485.84" width="169.37" height="24.45"/>
          <path class="cls-1" d="M348.04,486.84v22.45h-167.37v-22.45h167.37M350.04,484.84h-171.37v26.45h171.37v-26.45h0Z"/>
        </g>
        <g>
          <rect class="cls-7" x="347.04" y="485.84" width="151.67" height="24.45"/>
          <path class="cls-1" d="M497.71,486.84v22.45h-149.67v-22.45h149.67M499.71,484.84h-153.67v26.45h153.67v-26.45h0Z"/>
        </g>
        <text class="cls-17" transform="translate(185.24 503.25)"><tspan class="cls-4" x="0" y="0">Tuntaskan Piutang </tspan><tspan class="cls-5" x="164.11" y="0"> </tspan><tspan class="cls-13" x="168.66" y="0">jaga Kepatuhan</tspan></text>
        <g>
          <g>
            <path class="cls-14" d="M513.07,467.99c-7.46,0-13.53-6.07-13.53-13.53s6.07-13.53,13.53-13.53,13.53,6.07,13.53,13.53-6.07,13.53-13.53,13.53Z"/>
            <path class="cls-1" d="M513.07,441.93c6.92,0,12.53,5.61,12.53,12.53s-5.61,12.53-12.53,12.53-12.53-5.61-12.53-12.53,5.61-12.53,12.53-12.53M513.07,439.93c-8.01,0-14.53,6.52-14.53,14.53s6.52,14.53,14.53,14.53,14.53-6.52,14.53-14.53-6.52-14.53-14.53-14.53h0Z"/>
          </g>
          <text class="cls-11" transform="translate(502.29 460.2)"><tspan x="0" y="0">+3</tspan></text>
        </g>
      </g>
      <g class="cls-20">
        <g>
          <path class="cls-18" d="M128.92,595.58c.36-1.89,1.57-3.19,2.98-4.39,5.89-3.39,11.79-6.77,17.68-10.16l9.45-5.35c-2.21-2.96-5.73-4.89-9.69-4.89h-42.15c-6.66,0-12.11,5.45-12.11,12.11v34.91l2.6-1.64c2.96-1.4,4.9-3.65,5.74-6.83,1.34-5.04,2.63-10.1,4.05-15.11.35-1.22,1.04-2.39,1.76-3.45.55-.81,1.39-1.43,2.09-2.13,4.04-4.01,8.08-8.02,12.12-12.03.88-.88,1.64-.82,2.16.3.42.91.61,1.93.93,2.98.13-.07.38-.18.61-.32,1.69-.96,3.36-1.95,5.06-2.9,1-.56,1.79-.12,1.83,1.01.02.67,0,1.33,0,2-.06,2.28-1.11,3.95-3.08,5.08-2.05,1.17-4.07,2.39-6.12,3.55-3.73,2.11-5.54,5.29-5.51,9.57.03,4.3,0,8.61,0,12.91,0,.59-.07,1.31.6,1.49.45.13,1.09-.03,1.52-.27,2.46-1.37,4.89-2.79,7.33-4.19v-6.53c-.02-1.89-.18-3.91.16-5.72Z"/>
          <path class="cls-24" d="M159.15,593.32c-.26.18-.52.33-.76.51-2.02,1.52-3.18,3.57-3.8,5.99-1.25,4.84-2.55,9.66-3.82,14.49-.6,2.29-1.82,4.19-3.76,5.53-1.46,1.01-3.02,1.87-4.55,2.76-5.46,3.15-10.92,6.28-16.38,9.42-.06.04-.12.06-.18.09,0-.03,0-.06-.01-.1-.71-3.35.27-6.45,2.46-8.66,1.81-1.04,3.61-2.07,5.39-3.15.7-.42,1.33-.89,1.89-1.4,1.89-1.23,3.58-2.76,4.5-4.86,1.13-2.57.75-5.66.69-8.39-.03-1.6-.08-3.2-.14-4.8-.04-1.02.14-2.71-.48-3.63-1.06-1.58-2.84-1.08-4.05-.08-2.46,1.42-4.93,2.85-7.39,4.27v6.53c.4-.23.8-.46,1.2-.69,1.12-.64,1.9-.19,1.92,1.11.02.94.04,1.89,0,2.83-.08,2.12-.97,3.79-2.84,4.87-7.23,4.19-14.46,8.36-21.69,12.54l-9.51,4.19c2.23,2.71,5.6,4.45,9.36,4.45h42.15c6.66,0,12.11-5.45,12.11-12.11v-33.02l-2.31,1.3Z"/>
        </g>
        <g>
          <path class="cls-18" d="M171.6,594.13h9.06c.25,1.05.7,1.81,1.36,2.26.66.46,1.63.69,2.93.69,1.09,0,1.95-.19,2.57-.56s.94-.89.94-1.55c0-1.05-1.31-1.9-3.92-2.56-.53-.13-.93-.23-1.2-.29-2.14-.55-3.84-1.05-5.11-1.51-1.27-.45-2.19-.88-2.77-1.27-1.12-.8-1.95-1.76-2.51-2.88-.56-1.12-.84-2.39-.84-3.82,0-2.88,1.08-5.13,3.25-6.77,2.17-1.64,5.15-2.46,8.94-2.46s6.66.79,8.8,2.35c2.14,1.57,3.35,3.82,3.62,6.75h-8.84c-.15-.85-.52-1.49-1.13-1.91-.61-.42-1.48-.63-2.61-.63-1,0-1.74.16-2.23.49s-.73.83-.73,1.5c0,.96,1.27,1.76,3.82,2.4.22.07.39.11.51.14.37.09.93.23,1.67.41,3.37.85,5.58,1.63,6.62,2.32,1.29.85,2.23,1.83,2.82,2.91.59,1.09.89,2.38.89,3.86,0,3.2-1.12,5.67-3.36,7.38s-5.44,2.58-9.62,2.58c-3.85,0-6.9-.86-9.15-2.58-2.25-1.72-3.52-4.14-3.79-7.27Z"/>
          <path class="cls-18" d="M202.51,603.16v-29.01h23.18v6.95h-13.86v3.86h11.72v6.66h-11.72v4.49h14.44v7.05h-23.75Z"/>
          <path class="cls-18" d="M231.42,603.16v-29.01h8.84l8.13,13.49c.25.38.52.92.8,1.62.28.7.58,1.54.9,2.52-.08-.51-.14-1.08-.18-1.69-.04-.62-.06-1.37-.06-2.25v-13.69h8.88v29.01h-8.88l-8.13-13.39c-.25-.39-.52-.95-.82-1.67-.3-.72-.59-1.55-.9-2.48.09.51.16,1.05.2,1.61.04.56.06,1.34.06,2.35v13.59h-8.84Z"/>
          <path class="cls-18" d="M286.64,603.16l-.45-2.5c-1.05,1.12-2.32,1.95-3.8,2.49-1.48.54-3.21.82-5.18.82-4.15,0-7.42-1.36-9.81-4.09-2.39-2.72-3.58-6.46-3.58-11.2s1.33-8.6,4-11.27c2.67-2.67,6.4-4.01,11.21-4.01,3.78,0,6.83.94,9.15,2.82,2.32,1.88,3.69,4.52,4.12,7.94h-8.84c-.36-1.16-.93-2.04-1.72-2.64-.79-.6-1.78-.91-2.94-.91-1.86,0-3.26.72-4.18,2.15-.93,1.43-1.39,3.56-1.39,6.4,0,2.63.47,4.59,1.4,5.89s2.35,1.95,4.25,1.95c1.37,0,2.53-.32,3.48-.96s1.54-1.49,1.76-2.57h-4.19v-6.2h12.74v15.89h-6.01Z"/>
          <path class="cls-18" d="M298.73,603.16v-29.01h9.24v9.61l8.35-9.61h10.81l-10.36,10.69,11.7,18.31h-11.11l-7.09-11.62-2.3,2.38v9.24h-9.24Z"/>
          <path class="cls-18" d="M329.47,574.16h9.32v17.88c0,1.65.34,2.83,1.03,3.54.69.7,1.84,1.05,3.46,1.05s2.7-.34,3.38-1.03,1.01-1.87,1.01-3.55v-17.88h9.31v18.61c0,3.64-1.17,6.41-3.51,8.33-2.34,1.92-5.74,2.88-10.19,2.88s-7.9-.96-10.26-2.89c-2.36-1.92-3.54-4.7-3.54-8.32v-18.61Z"/>
          <path class="cls-18" d="M370.81,603.16v-10.73l-10.67-18.28h10.32l5,9.89,5.04-9.89h10.04l-10.42,18.28v10.73h-9.31Z"/>
          <path class="cls-18" d="M393.63,574.16h9.32v17.88c0,1.65.34,2.83,1.03,3.54.69.7,1.84,1.05,3.46,1.05s2.7-.34,3.38-1.03,1.01-1.87,1.01-3.55v-17.88h9.31v18.61c0,3.64-1.17,6.41-3.51,8.33-2.34,1.92-5.74,2.88-10.19,2.88s-7.9-.96-10.26-2.89c-2.36-1.92-3.54-4.7-3.54-8.32v-18.61Z"/>
          <path class="cls-18" d="M427.39,603.16v-29.01h8.84l8.13,13.49c.25.38.52.92.8,1.62s.58,1.54.9,2.52c-.08-.51-.14-1.08-.18-1.69-.04-.62-.06-1.37-.06-2.25v-13.69h8.88v29.01h-8.88l-8.13-13.39c-.25-.39-.52-.95-.82-1.67-.3-.72-.59-1.55-.9-2.48.09.51.16,1.05.2,1.61.04.56.06,1.34.06,2.35v13.59h-8.84Z"/>
          <path class="cls-18" d="M487.68,587.27h-11.81v6.2h4.19c-.22,1.08-.81,1.93-1.76,2.57-.95.64-2.11.96-3.48.96-1.9,0-3.32-.65-4.25-1.95-.93-1.3-1.4-3.26-1.4-5.89,0-2.84.46-4.97,1.39-6.4.93-1.43,2.32-2.15,4.19-2.15,1.17,0,2.15.3,2.94.91.79.6,1.37,1.48,1.72,2.64h8.84c-.43-3.41-1.81-6.06-4.12-7.94-2.32-1.88-5.37-2.82-9.15-2.82-4.81,0-8.54,1.34-11.21,4.01s-4,6.43-4,11.27,1.19,8.47,3.58,11.2c2.39,2.72,5.66,4.09,9.81,4.09,1.97,0,3.7-.27,5.18-.82s2.75-1.38,3.8-2.49l.45,2.5h6.01v-15.89h-.93Z"/>
        </g>
        <rect class="cls-18" x="172.94" y="614.15" width="167.37" height="22.45"/>
        <rect class="cls-24" x="340.3" y="614.15" width="149.67" height="22.45"/>
        <text class="cls-17" transform="translate(177.5 630.56)"><tspan class="cls-4" x="0" y="0">Tuntaskan Piutang </tspan><tspan class="cls-5" x="164.11" y="0"> </tspan><tspan class="cls-22" x="168.66" y="0">jaga Kepatuhan</tspan></text>
        <g>
          <circle class="cls-18" cx="505.33" cy="581.77" r="12.53"/>
          <text class="cls-11" transform="translate(494.55 587.51)"><tspan x="0" y="0">+3</tspan></text>
        </g>
      </g>
      <g>
        <rect class="cls-19" x="70.07" y="73.13" width="643.08" height="131.21"/>
        <g>
          <path class="cls-12" d="M133,122.28c.36-1.89,1.57-3.19,2.98-4.39,5.89-3.39,11.79-6.77,17.68-10.16l9.45-5.35c-2.21-2.96-5.73-4.89-9.69-4.89h-42.15c-6.66,0-12.11,5.45-12.11,12.11v34.91l2.6-1.64c2.96-1.4,4.9-3.65,5.74-6.83,1.34-5.04,2.63-10.1,4.05-15.11.35-1.22,1.04-2.39,1.76-3.45.55-.81,1.39-1.43,2.09-2.13,4.04-4.01,8.08-8.02,12.12-12.03.88-.88,1.64-.82,2.16.3.42.91.61,1.93.93,2.98.13-.07.38-.18.61-.32,1.69-.96,3.36-1.95,5.06-2.9,1-.56,1.79-.12,1.83,1.01.02.67,0,1.33,0,2-.06,2.28-1.11,3.95-3.08,5.08-2.05,1.17-4.07,2.39-6.12,3.55-3.73,2.11-5.54,5.29-5.51,9.57.03,4.3,0,8.61,0,12.91,0,.59-.07,1.31.6,1.49.45.13,1.09-.03,1.52-.27,2.46-1.37,4.89-2.79,7.33-4.19v-6.53c-.02-1.89-.18-3.91.16-5.72Z"/>
          <path class="cls-12" d="M163.22,120.02c-.26.18-.52.33-.76.51-2.02,1.52-3.18,3.57-3.8,5.99-1.25,4.84-2.55,9.66-3.82,14.49-.6,2.29-1.82,4.19-3.76,5.53-1.46,1.01-3.02,1.87-4.55,2.76-5.46,3.15-10.92,6.28-16.38,9.42-.06.04-.12.06-.18.09,0-.03,0-.06-.01-.1-.71-3.35.27-6.45,2.46-8.66,1.81-1.04,3.61-2.07,5.39-3.15.7-.42,1.33-.89,1.89-1.4,1.89-1.23,3.58-2.76,4.5-4.86,1.13-2.57.75-5.66.69-8.39-.03-1.6-.08-3.2-.14-4.8-.04-1.02.14-2.71-.48-3.63-1.06-1.58-2.84-1.08-4.05-.08-2.46,1.42-4.93,2.85-7.39,4.27v6.53c.4-.23.8-.46,1.2-.69,1.12-.64,1.9-.19,1.92,1.11.02.94.04,1.89,0,2.83-.08,2.12-.97,3.79-2.84,4.87-7.23,4.19-14.46,8.36-21.69,12.54l-9.51,4.19c2.23,2.71,5.6,4.45,9.36,4.45h42.15c6.66,0,12.11-5.45,12.11-12.11v-33.02l-2.31,1.3Z"/>
        </g>
        <g>
          <path class="cls-12" d="M175.67,120.83h9.06c.25,1.05.7,1.81,1.36,2.26.66.46,1.63.69,2.93.69,1.09,0,1.95-.19,2.57-.56s.94-.89.94-1.55c0-1.05-1.31-1.9-3.92-2.56-.53-.13-.93-.23-1.2-.29-2.14-.55-3.84-1.05-5.11-1.51-1.27-.45-2.19-.88-2.77-1.27-1.12-.8-1.95-1.76-2.51-2.88-.56-1.12-.84-2.39-.84-3.82,0-2.88,1.08-5.13,3.25-6.77,2.17-1.64,5.15-2.46,8.94-2.46s6.66.79,8.8,2.35c2.14,1.57,3.35,3.82,3.62,6.75h-8.84c-.15-.85-.52-1.49-1.13-1.91-.61-.42-1.48-.63-2.61-.63-1,0-1.74.16-2.23.49s-.73.83-.73,1.5c0,.96,1.27,1.76,3.82,2.4.22.07.39.11.51.14.37.09.93.23,1.67.41,3.37.85,5.58,1.63,6.62,2.32,1.29.85,2.23,1.83,2.82,2.91.59,1.09.89,2.38.89,3.86,0,3.2-1.12,5.67-3.36,7.38s-5.44,2.58-9.62,2.58c-3.85,0-6.9-.86-9.15-2.58-2.25-1.72-3.52-4.14-3.79-7.27Z"/>
          <path class="cls-12" d="M206.59,129.87v-29.01h23.18v6.95h-13.86v3.86h11.72v6.66h-11.72v4.49h14.44v7.05h-23.75Z"/>
          <path class="cls-12" d="M235.5,129.87v-29.01h8.84l8.13,13.49c.25.38.52.92.8,1.62.28.7.58,1.54.9,2.52-.08-.51-.14-1.08-.18-1.69-.04-.62-.06-1.37-.06-2.25v-13.69h8.88v29.01h-8.88l-8.13-13.39c-.25-.39-.52-.95-.82-1.67-.3-.72-.59-1.55-.9-2.48.09.51.16,1.05.2,1.61.04.56.06,1.34.06,2.35v13.59h-8.84Z"/>
          <path class="cls-12" d="M290.72,129.87l-.45-2.5c-1.05,1.12-2.32,1.95-3.8,2.49-1.48.54-3.21.82-5.18.82-4.15,0-7.42-1.36-9.81-4.09-2.39-2.72-3.58-6.46-3.58-11.2s1.33-8.6,4-11.27c2.67-2.67,6.4-4.01,11.21-4.01,3.78,0,6.83.94,9.15,2.82,2.32,1.88,3.69,4.52,4.12,7.94h-8.84c-.36-1.16-.93-2.04-1.72-2.64-.79-.6-1.78-.91-2.94-.91-1.86,0-3.26.72-4.18,2.15-.93,1.43-1.39,3.56-1.39,6.4,0,2.63.47,4.59,1.4,5.89s2.35,1.95,4.25,1.95c1.37,0,2.53-.32,3.48-.96s1.54-1.49,1.76-2.57h-4.19v-6.2h12.74v15.89h-6.01Z"/>
          <path class="cls-12" d="M302.81,129.87v-29.01h9.24v9.61l8.35-9.61h10.81l-10.36,10.69,11.7,18.31h-11.11l-7.09-11.62-2.3,2.38v9.24h-9.24Z"/>
          <path class="cls-12" d="M333.55,100.86h9.32v17.88c0,1.65.34,2.83,1.03,3.54.69.7,1.84,1.05,3.46,1.05s2.7-.34,3.38-1.03,1.01-1.87,1.01-3.55v-17.88h9.31v18.61c0,3.64-1.17,6.41-3.51,8.33-2.34,1.92-5.74,2.88-10.19,2.88s-7.9-.96-10.26-2.89c-2.36-1.92-3.54-4.7-3.54-8.32v-18.61Z"/>
          <path class="cls-12" d="M374.88,129.87v-10.73l-10.67-18.28h10.32l5,9.89,5.04-9.89h10.04l-10.42,18.28v10.73h-9.31Z"/>
          <path class="cls-12" d="M397.71,100.86h9.32v17.88c0,1.65.34,2.83,1.03,3.54.69.7,1.84,1.05,3.46,1.05s2.7-.34,3.38-1.03,1.01-1.87,1.01-3.55v-17.88h9.31v18.61c0,3.64-1.17,6.41-3.51,8.33-2.34,1.92-5.74,2.88-10.19,2.88s-7.9-.96-10.26-2.89c-2.36-1.92-3.54-4.7-3.54-8.32v-18.61Z"/>
          <path class="cls-12" d="M431.46,129.87v-29.01h8.84l8.13,13.49c.25.38.52.92.8,1.62s.58,1.54.9,2.52c-.08-.51-.14-1.08-.18-1.69-.04-.62-.06-1.37-.06-2.25v-13.69h8.88v29.01h-8.88l-8.13-13.39c-.25-.39-.52-.95-.82-1.67-.3-.72-.59-1.55-.9-2.48.09.51.16,1.05.2,1.61.04.56.06,1.34.06,2.35v13.59h-8.84Z"/>
          <path class="cls-12" d="M491.75,113.97h-11.81v6.2h4.19c-.22,1.08-.81,1.93-1.76,2.57-.95.64-2.11.96-3.48.96-1.9,0-3.32-.65-4.25-1.95-.93-1.3-1.4-3.26-1.4-5.89,0-2.84.46-4.97,1.39-6.4.93-1.43,2.32-2.15,4.19-2.15,1.17,0,2.15.3,2.94.91.79.6,1.37,1.48,1.72,2.64h8.84c-.43-3.41-1.81-6.06-4.12-7.94-2.32-1.88-5.37-2.82-9.15-2.82-4.81,0-8.54,1.34-11.21,4.01s-4,6.43-4,11.27,1.19,8.47,3.58,11.2c2.39,2.72,5.66,4.09,9.81,4.09,1.97,0,3.7-.27,5.18-.82s2.75-1.38,3.8-2.49l.45,2.5h6.01v-15.89h-.93Z"/>
        </g>
        <path class="cls-12" d="M344.88,163.8h-168.37v-23.45h168.37v23.45ZM177.51,162.8h166.37v-21.45h-166.37v21.45Z"/>
        <rect class="cls-12" x="344.38" y="140.85" width="149.67" height="22.45"/>
        <text class="cls-17" transform="translate(181.58 157.26)"><tspan class="cls-4" x="0" y="0">Tuntaskan Piutang</tspan><tspan class="cls-6" x="159.56" y="0" xml:space="preserve">  </tspan><tspan class="cls-21" x="168.66" y="0">Jaga Kepatuhan</tspan></text>
        <path class="cls-12" d="M509.4,95.94c-6.92,0-12.53,5.61-12.53,12.53s5.61,12.53,12.53,12.53,12.53-5.61,12.53-12.53-5.61-12.53-12.53-12.53ZM507.52,109.74h-2.73v2.66h-2.48v-2.66h-2.74v-2.35h2.74v-2.66h2.48v2.66h2.73v2.35ZM512.77,114.44c-1.56,0-3.23-.39-4.39-1.11l1.16-2.4c.9.61,2.06.94,3.13.94s1.79-.42,1.79-1.18c0-.68-.5-1.1-1.73-1.1h-1.34v-2.02l2.02-2.18h-4.45v-2.47h8.16v2l-2.34,2.52c1.9.4,2.9,1.63,2.9,3.24,0,1.92-1.52,3.76-4.92,3.76Z"/>
      </g>
    </g>
  </g>
</svg>